<?xml version="1.0" encoding="UTF-8" standalone="no"?>
<!DOCTYPE svg PUBLIC "-//W3C//DTD SVG 1.1//EN" "http://www.w3.org/Graphics/SVG/1.1/DTD/svg11.dtd">
<svg width="100%" height="100%" viewBox="0 0 1225 1131" version="1.1" xmlns="http://www.w3.org/2000/svg" xmlns:xlink="http://www.w3.org/1999/xlink" xml:space="preserve" xmlns:serif="http://www.serif.com/" style="fill-rule:evenodd;clip-rule:evenodd;stroke-linecap:round;stroke-linejoin:round;stroke-miterlimit:1.5;">
    <g transform="matrix(1,0,0,1,-7.17999,-61.6254)">
        <g id="TravelExperts">
            <g id="CircleBG" transform="matrix(1.05268,0,0,1.05795,-98.2167,-64.7444)">
                <circle cx="728.841" cy="653.965" r="534.517" style="fill:rgb(164,194,244);"/>
            </g>
            <g id="Stars">
                <g transform="matrix(0.715002,0.699123,-0.699123,0.715002,360.125,-371.85)">
                    <path d="M683.078,79.876C683.763,77.054 686.299,75.074 689.202,75.094C692.106,75.114 694.615,77.128 695.262,79.959C696.935,87.286 698.634,94.723 699.864,100.108C700.977,104.98 704.799,108.774 709.68,109.85C715.069,111.039 722.548,112.688 730.076,114.348C732.974,114.987 735.025,117.574 734.987,120.541C734.949,123.508 732.832,126.04 729.919,126.605C722.65,128.013 715.409,129.416 709.983,130.467C704.501,131.53 700.187,135.771 699.033,141.235C697.9,146.599 696.395,153.721 694.902,160.792C694.296,163.659 691.782,165.722 688.852,165.757C685.922,165.791 683.36,163.788 682.687,160.936C680.562,151.936 678.432,142.909 677.209,137.73C676.572,135.032 674.445,132.937 671.737,132.343C666.423,131.176 657.08,129.124 647.914,127.111C645.077,126.488 643.042,123.996 642.998,121.093C642.954,118.189 644.913,115.637 647.729,114.928C656.161,112.807 664.775,110.64 670.311,109.247C674.004,108.318 676.878,105.42 677.776,101.72C679.084,96.331 681.096,88.04 683.078,79.876Z" style="fill:white;stroke:rgb(67,67,67);stroke-width:1.5px;"/>
                </g>
                <g transform="matrix(0.715002,0.699123,-0.699123,0.715002,370.709,495.503)">
                    <path d="M683.078,79.876C683.763,77.054 686.299,75.074 689.202,75.094C692.106,75.114 694.615,77.128 695.262,79.959C696.935,87.286 698.634,94.723 699.864,100.108C700.977,104.98 704.799,108.774 709.68,109.85C715.069,111.039 722.548,112.688 730.076,114.348C732.974,114.987 735.025,117.574 734.987,120.541C734.949,123.508 732.832,126.04 729.919,126.605C722.65,128.013 715.409,129.416 709.983,130.467C704.501,131.53 700.187,135.771 699.033,141.235C697.9,146.599 696.395,153.721 694.902,160.792C694.296,163.659 691.782,165.722 688.852,165.757C685.922,165.791 683.36,163.788 682.687,160.936C680.562,151.936 678.432,142.909 677.209,137.73C676.572,135.032 674.445,132.937 671.737,132.343C666.423,131.176 657.08,129.124 647.914,127.111C645.077,126.488 643.042,123.996 642.998,121.093C642.954,118.189 644.913,115.637 647.729,114.928C656.161,112.807 664.775,110.64 670.311,109.247C674.004,108.318 676.878,105.42 677.776,101.72C679.084,96.331 681.096,88.04 683.078,79.876Z" style="fill:white;stroke:rgb(67,67,67);stroke-width:1.5px;"/>
                </g>
            </g>
            <g id="GreenTrailsandFillers" transform="matrix(1,0,0,1,32.2237,0)">
                <g id="BottomGreenFillerCenter" transform="matrix(1.16833,0,0,1,-133.321,-61.1315)">
                    <rect x="634.569" y="878.671" width="342.85" height="101.316" style="fill:rgb(164,244,174);"/>
                </g>
                <g id="BottomGreenFillerBottom" transform="matrix(0.93153,0,0,1.00939,10.4865,113.496)">
                    <path d="M1071.47,772.633C1086.01,771.474 1097.9,786.644 1097.9,801.231C1097.9,815.818 1086.03,828.537 1071.47,827.66C1065.72,827.314 547.871,834.447 549.304,825.416C550.531,817.682 543.118,782.685 548.76,777.379C559.146,767.612 1069.6,772.782 1071.47,772.633Z" style="fill:rgb(164,244,174);"/>
                </g>
                <g id="BottomGreenFillerTop" transform="matrix(1.0559,0,0,1.0559,-32.8098,-32.9152)">
                    <path d="M1071.47,774.802C1086.01,773.643 1097.9,786.644 1097.9,801.231C1097.9,815.818 1086.03,828.537 1071.47,827.66C1065.72,827.314 547.871,834.447 549.304,825.416C550.531,817.682 544.839,784.803 550.481,779.497C560.867,769.73 1069.6,774.951 1071.47,774.802Z" style="fill:rgb(164,244,174);"/>
                </g>
                <g id="TopRightGreenEllipse" transform="matrix(1,0,0,1,327.805,-422.484)">
                    <ellipse cx="797.25" cy="867.677" rx="37.99" ry="26.301" style="fill:rgb(164,244,174);"/>
                </g>
                <g id="TopGreenFillerBottom" transform="matrix(1.0559,0,0,-1.0559,-94.5959,1288.82)">
                    <path d="M1071.47,774.802C1086.01,773.643 1097.9,786.644 1097.9,801.231C1097.9,815.818 1086.03,828.537 1071.47,827.66C1065.72,827.314 547.871,834.447 549.304,825.416C550.531,817.682 544.839,784.803 550.481,779.497C560.867,769.73 1069.6,774.951 1071.47,774.802Z" style="fill:rgb(164,244,174);"/>
                </g>
                <g id="TopGreenFillerCenter" transform="matrix(1.16833,0,0,-1,-165.107,1317.03)">
                    <rect x="634.569" y="878.671" width="342.85" height="101.316" style="fill:rgb(164,244,174);"/>
                </g>
                <g id="TopGreenFillerTop" transform="matrix(0.957218,-1.20852e-17,1.15528e-17,-1.00939,-43.5021,1142.41)">
                    <path d="M1071.47,772.633C1086.01,771.474 1097.9,786.644 1097.9,801.231C1097.9,815.818 1086.03,828.537 1071.47,827.66C1065.72,827.314 547.871,834.447 549.304,825.416C550.531,817.682 572.742,776.531 578.385,771.225C588.771,761.458 1069.6,772.782 1071.47,772.633Z" style="fill:rgb(164,244,174);"/>
                </g>
            </g>
            <g id="Blue-Fillers" serif:id="Blue Fillers" transform="matrix(1,0,0,1,32.2237,0)">
                <g id="TopBlueFillerRight" transform="matrix(0.905128,0,0,0.905128,124.815,18.777)">
                    <path d="M895.595,381.132C903.391,381.132 1068.38,376.435 1072.86,384.726C1076.84,392.092 1078.24,421.133 1078.24,428.059C1078.24,442.782 910.015,436.296 895.293,436.296C880.57,436.296 868.617,423.437 868.617,408.714C868.617,393.991 880.872,381.132 895.595,381.132Z" style="fill:rgb(164,194,244);"/>
                </g>
                <g id="BottomBlueFillerRight2" transform="matrix(1.01808,0,0,0.978945,23.6391,465.757)">
                    <path d="M895.595,381.132C903.799,383.255 1069.61,382.846 1072.86,384.726C1080.1,388.921 1081.64,422.771 1081.64,429.697C1081.64,444.42 910.015,436.296 895.293,436.296C880.57,436.296 868.617,423.437 868.617,408.714C868.617,393.991 881.342,377.443 895.595,381.132Z" style="fill:rgb(164,194,244);"/>
                </g>
                <g id="BottomBlueFillerLeft2" transform="matrix(-0.905128,0,0,0.905128,1473,498.862)">
                    <path d="M895.595,381.132C903.391,381.132 1068.38,376.435 1072.86,384.726C1076.84,392.092 1078.24,421.133 1078.24,428.059C1078.24,442.782 910.015,436.296 895.293,436.296C880.57,436.296 868.617,423.437 868.617,408.714C868.617,393.991 880.872,381.132 895.595,381.132Z" style="fill:rgb(164,194,244);"/>
                </g>
                <g id="TopBlueFillerLeft" transform="matrix(-1.41458,0,0,0.978945,2066.58,-9.32792)">
                    <path d="M895.595,381.132C903.391,381.132 1068.38,376.435 1072.86,384.726C1076.84,392.092 1081.64,422.771 1081.64,429.697C1081.64,444.42 910.015,436.296 895.293,436.296C880.57,436.296 868.617,423.437 868.617,408.714C868.617,393.991 880.872,381.132 895.595,381.132Z" style="fill:rgb(164,194,244);"/>
                </g>
                <g id="BottomBlueEllipse" transform="matrix(1,0,0,1,-2,0)">
                    <ellipse cx="797.25" cy="867.677" rx="37.99" ry="26.301" style="fill:rgb(164,194,244);"/>
                </g>
            </g>
            <g id="PlaneExterior" transform="matrix(1.24214,0,0,1.24214,-30.6465,-146.399)">
                <g id="BottomRightWingExterior" transform="matrix(1.47382,0,0,0.759162,-425.381,191.078)">
                    <path d="M854.87,653.893L787.511,685.539C787.511,685.539 826.377,776.275 832.541,790.663C833.06,791.875 833.829,792.576 834.641,792.576C839.129,792.576 854.23,792.576 860.801,792.576C861.585,792.576 862.331,791.921 862.849,790.78C863.368,789.638 863.609,788.118 863.51,786.608C861.781,760.05 854.87,653.893 854.87,653.893Z" style="fill:rgb(67,67,67);"/>
                </g>
                <g id="TopRightWingExterior" transform="matrix(1.47382,0,0,-0.759162,-428.307,1067.21)">
                    <path d="M854.87,653.893L787.511,685.539C787.511,685.539 826.377,776.275 832.541,790.663C833.06,791.875 833.829,792.576 834.641,792.576C839.129,792.576 854.23,792.576 860.801,792.576C861.585,792.576 862.331,791.921 862.849,790.78C863.368,789.638 863.609,788.118 863.51,786.608C861.781,760.05 854.87,653.893 854.87,653.893Z" style="fill:rgb(67,67,67);"/>
                </g>
                <g id="TopMainWingExterior">
                    <g id="CircleBottom" transform="matrix(1.11872,1.97215e-31,0,-1.11872,28.6201,1410.56)">
                        <circle cx="327.478" cy="860.296" r="23.405" style="fill:rgb(67,67,67);"/>
                    </g>
                    <g id="CircleTop" transform="matrix(1.11872,1.97215e-31,0,-1.11872,76.8414,1308.82)">
                        <circle cx="327.478" cy="860.296" r="23.405" style="fill:rgb(67,67,67);"/>
                    </g>
                    <g id="TopMainWingExterior1" serif:id="TopMainWingExterior" transform="matrix(2.62665,-2.42949e-16,1.25143e-16,-2.37485,-1685.48,2100.21)">
                        <path d="M855.574,653.929L772.668,653.57C786.7,689.163 810.607,740.47 837.224,796.088C837.489,796.643 838.011,796.99 838.579,796.99C843.126,796.988 863.172,796.98 869.207,796.978C869.644,796.978 870.061,796.771 870.352,796.408C870.643,796.046 870.779,795.564 870.728,795.083C868.914,778.185 855.574,653.929 855.574,653.929Z" style="fill:rgb(67,67,67);"/>
                    </g>
                </g>
                <g id="BottomMainWingExterior">
                    <g id="BottomMainWingExterior1" serif:id="BottomMainWingExterior" transform="matrix(2.62665,2.42949e-16,1.25143e-16,2.37485,-1662.78,-844.865)">
                        <path d="M848.673,654.793L765.838,656.734C779.022,693.106 807.981,743.399 838.15,796.341C838.433,796.836 838.927,797.136 839.457,797.132C843.82,797.101 863.695,796.96 869.845,796.916C870.297,796.913 870.725,796.69 871.014,796.305C871.303,795.921 871.424,795.415 871.344,794.923C868.567,777.757 848.673,654.793 848.673,654.793Z" style="fill:rgb(67,67,67);"/>
                    </g>
                    <g id="CircleTop1" serif:id="CircleTop" transform="matrix(1.11872,0,0,1.11872,40.8489,-139.969)">
                        <circle cx="327.478" cy="860.296" r="23.405" style="fill:rgb(67,67,67);"/>
                    </g>
                    <g id="CircleBottom1" serif:id="CircleBottom" transform="matrix(1.11872,0,0,1.11872,104.118,-41.6453)">
                        <circle cx="327.478" cy="860.296" r="23.405" style="fill:rgb(67,67,67);"/>
                    </g>
                </g>
                <g id="PlaneCenterOuter" transform="matrix(1.0407,0,0,1.25891,-19.6905,-160.961)">
                    <path d="M155.084,562.231C155.084,562.231 55.948,572.981 48.184,629.716C48.184,629.716 46.392,684.658 156.278,697.797L721.981,694.371C778.912,693.854 899.325,657.847 900.002,623.461C900.33,606.783 811.52,564.503 717.638,558.983L155.084,562.231Z" style="fill:rgb(67,67,67);"/>
                </g>
            </g>
            <g id="InnerPlaneFill" transform="matrix(1.24214,0,0,1.24214,-30.6465,-146.399)">
                <path id="PlaneBodyCenterFill" d="M155.084,562.231C155.084,562.231 55.948,572.981 48.184,629.716C48.184,629.716 46.392,684.658 156.278,697.797L721.981,694.371C778.912,693.854 899.325,657.847 900.002,623.461C900.33,606.783 811.52,564.503 717.638,558.983L155.084,562.231Z" style="fill:rgb(234,234,234);"/>
                <path id="bottomWingFill" d="M549.023,714.439C549.023,714.439 380.668,715.326 366.876,715.398C366.685,715.399 366.508,715.5 366.409,715.663C366.31,715.827 366.303,716.03 366.39,716.2C421.159,822.408 485.165,926.768 549.116,1031.14L606.502,1030.63L549.023,714.439Z" style="fill:rgb(234,234,234);"/>
                <g id="TopWingFill" transform="matrix(1,-2.17759e-19,2.17759e-19,-1.00178,-21.9979,1255.21)">
                    <path d="M566.159,710.517C566.124,710.237 565.886,710.026 565.603,710.024C555.471,709.965 393.036,709.018 385.58,708.975C385.489,708.974 385.4,708.998 385.322,709.044C386.855,713.851 490.17,924.708 548.519,1027.92C548.618,1028.1 548.805,1028.2 549.008,1028.21C553.341,1028.21 599.201,1028.32 605.172,1028.33C605.334,1028.33 605.488,1028.26 605.595,1028.14C605.702,1028.02 605.752,1027.86 605.732,1027.7C603.82,1012.37 567.845,724.025 566.159,710.517Z" style="fill:rgb(234,234,234);"/>
                </g>
                <g id="bottomRightWingFill" transform="matrix(0.304879,0,0,0.213535,644.352,555.642)">
                    <path d="M564.985,652.383C564.911,651.65 564.626,650.996 564.198,650.578C563.771,650.16 563.24,650.018 562.735,650.186C543.498,656.587 388.934,708.011 366.675,715.417C366.084,715.613 365.602,716.22 365.391,717.033C365.181,717.846 365.272,718.755 365.632,719.453C420.02,824.523 485.666,926.934 548.974,1030.23C549.327,1030.81 549.839,1031.13 550.376,1031.13C556.306,1031.08 591.68,1030.76 600.751,1030.68C601.285,1030.68 601.791,1030.35 602.14,1029.77C602.488,1029.19 602.645,1028.42 602.569,1027.67C599.188,993.909 568.287,685.354 564.985,652.383Z" style="fill:rgb(234,234,234);"/>
                </g>
                <g id="TopRightWingFill" transform="matrix(0.282165,-0.00425593,-0.00306792,-0.2034,657.625,695.136)">
                    <path d="M565.916,655.07C565.841,654.3 565.536,653.609 565.075,653.166C564.614,652.724 564.041,652.57 563.494,652.742C543.501,659.054 388.835,707.886 365.826,715.15C365.19,715.35 364.668,715.979 364.436,716.825C364.204,717.672 364.293,718.623 364.674,719.359C419.035,824.349 484.599,926.402 547.863,1029.62C548.239,1030.24 548.788,1030.59 549.368,1030.6C555.528,1030.67 591.054,1031.09 600.501,1031.2C601.081,1031.21 601.634,1030.86 602.017,1030.26C602.4,1029.66 602.575,1028.85 602.497,1028.06C599.114,993.566 569.21,688.652 565.916,655.07Z" style="fill:rgb(234,234,234);"/>
                </g>
            </g>
            <g id="Plane-Inner-Reflection" serif:id="Plane Inner Reflection" transform="matrix(1.24214,0,0,1.24214,-30.6465,-146.399)">
                <g id="plane-body-left-refl" serif:id="plane body left refl" transform="matrix(1,0,0,1,-0.363664,-1.27268)">
                    <path d="M527.951,591.657L642.514,590.524" style="fill:none;stroke:white;stroke-width:13.45px;"/>
                </g>
                <path id="plane-body-right-refl" serif:id="plane body right refl" d="M96.55,615.648C96.55,615.648 131.918,595.907 151.486,594.562C210.676,590.493 444.466,590.515 444.466,590.515" style="fill:rgb(234,234,234);stroke:white;stroke-width:13.44px;"/>
                <path id="top-wing-refl" serif:id="top wing refl" d="M412.002,512.308L532.47,265.991" style="fill:none;stroke:white;stroke-width:13.44px;"/>
            </g>
            <g id="Plane-Shadows" serif:id="Plane Shadows" transform="matrix(1.24214,0,0,1.24214,-30.6465,-146.399)">
                <g id="Plane-bottom-big-wing-Shadow" serif:id="Plane bottom big wing Shadow" transform="matrix(0.964286,0,0,1.03093,13.1241,-23.1856)">
                    <path d="M555.747,715.496C555.747,715.496 384.638,716.178 367.056,716.248C366.749,716.25 366.464,716.401 366.306,716.648C366.148,716.895 366.14,717.201 366.284,717.456C372.534,728.479 378.775,739.506 385.073,750.516L562.526,750.375L555.747,715.496Z" style="fill:rgb(206,206,206);"/>
                </g>
                <path id="Plane-body-inner-shadow" serif:id="Plane body inner shadow" d="M897.439,633.276C855.981,682.918 745.887,694.079 715.452,694.458C591.732,696 218.69,699.114 160.325,697.738C100.923,696.337 68.347,666.914 63.723,661.745C59.177,656.664 97.769,673.956 128.135,672.502C158.501,671.047 674.043,670.683 674.043,670.683C675.473,669.116 791.623,677.264 884.481,606.887C884.481,606.887 894.557,611.875 898.906,618.868C901.667,623.31 901.029,628.977 897.439,633.276Z" style="fill:rgb(206,206,206);"/>
                <path id="Plane-Bottom-Small-wing-shadow" serif:id="Plane Bottom Small wing shadow" d="M816.595,694.873C816.569,694.719 816.48,694.583 816.35,694.497C816.22,694.412 816.061,694.383 815.909,694.419C796.355,699.062 775.857,703.861 755.983,708.312C755.796,708.354 755.643,708.488 755.577,708.668C755.511,708.848 755.541,709.05 755.657,709.203C760.339,715.379 765.147,721.486 770.076,727.517C786.398,725.695 804.149,722.268 819.85,717.652C818.784,710.058 817.876,702.425 816.595,694.873Z" style="fill:rgb(206,206,206);"/>
            </g>
            <g transform="matrix(2.61071,0,0,2.61071,-308.764,-2474.54)">
                <g transform="matrix(45,0,0,45,162.736,1205)">
                    <path d="M0.745,-0.604L0.63,-0.617C0.63,-0.612 0.628,-0.592 0.624,-0.555C0.615,-0.465 0.611,-0.375 0.611,-0.284C0.611,-0.193 0.618,-0.103 0.632,-0.012C0.61,-0.004 0.587,0 0.563,0C0.539,0 0.518,-0.007 0.501,-0.021C0.484,-0.034 0.475,-0.055 0.475,-0.083C0.475,-0.11 0.478,-0.159 0.485,-0.229C0.492,-0.299 0.495,-0.368 0.495,-0.435C0.495,-0.502 0.492,-0.565 0.485,-0.622C0.475,-0.623 0.459,-0.623 0.437,-0.623C0.229,-0.623 0.106,-0.549 0.068,-0.402C0.026,-0.436 0.005,-0.477 0.005,-0.525C0.005,-0.572 0.022,-0.611 0.057,-0.642C0.111,-0.689 0.221,-0.713 0.387,-0.713L0.576,-0.71C0.685,-0.71 0.765,-0.714 0.816,-0.722C0.823,-0.708 0.827,-0.692 0.827,-0.674C0.827,-0.656 0.819,-0.64 0.803,-0.625C0.787,-0.611 0.768,-0.604 0.745,-0.604Z" style="fill:rgb(77,136,235);fill-rule:nonzero;"/>
                </g>
                <g transform="matrix(45,0,0,45,200.131,1205)">
                    <path d="M0.199,-0.012C0.178,-0.004 0.156,0 0.133,0C0.11,0 0.091,-0.006 0.077,-0.017C0.062,-0.028 0.055,-0.043 0.055,-0.063C0.055,-0.082 0.058,-0.118 0.064,-0.17C0.07,-0.222 0.073,-0.273 0.073,-0.322C0.073,-0.371 0.065,-0.428 0.05,-0.494C0.071,-0.502 0.092,-0.506 0.113,-0.506C0.134,-0.506 0.152,-0.499 0.167,-0.485C0.182,-0.471 0.189,-0.452 0.189,-0.429C0.189,-0.417 0.187,-0.399 0.183,-0.376C0.179,-0.352 0.177,-0.334 0.176,-0.322C0.202,-0.381 0.233,-0.428 0.269,-0.462C0.304,-0.495 0.34,-0.512 0.375,-0.512C0.4,-0.512 0.419,-0.503 0.434,-0.486C0.449,-0.469 0.456,-0.447 0.456,-0.421C0.456,-0.394 0.449,-0.373 0.436,-0.357C0.423,-0.34 0.406,-0.332 0.387,-0.332C0.367,-0.332 0.351,-0.334 0.339,-0.338C0.341,-0.346 0.342,-0.353 0.342,-0.36C0.342,-0.387 0.332,-0.401 0.313,-0.401C0.284,-0.401 0.256,-0.372 0.231,-0.313C0.205,-0.254 0.188,-0.198 0.179,-0.147C0.182,-0.097 0.189,-0.052 0.199,-0.012Z" style="fill:rgb(77,136,235);fill-rule:nonzero;"/>
                </g>
                <g transform="matrix(45,0,0,45,220.696,1205)">
                    <path d="M0.509,-0.471C0.491,-0.394 0.482,-0.318 0.482,-0.241C0.482,-0.164 0.491,-0.087 0.508,-0.012C0.484,-0.004 0.459,0 0.434,0C0.409,0 0.391,-0.008 0.381,-0.023C0.371,-0.038 0.366,-0.059 0.366,-0.087C0.366,-0.116 0.37,-0.155 0.379,-0.204C0.332,-0.103 0.286,-0.039 0.242,-0.012C0.222,0 0.201,0.006 0.18,0.006C0.129,0.006 0.09,-0.013 0.062,-0.051C0.034,-0.088 0.02,-0.135 0.02,-0.191C0.02,-0.276 0.044,-0.351 0.091,-0.416C0.138,-0.48 0.2,-0.512 0.276,-0.512C0.351,-0.512 0.429,-0.498 0.509,-0.471ZM0.378,-0.411C0.343,-0.422 0.313,-0.427 0.288,-0.427C0.238,-0.427 0.201,-0.416 0.176,-0.394C0.153,-0.338 0.142,-0.281 0.142,-0.223C0.142,-0.192 0.147,-0.161 0.157,-0.13C0.166,-0.099 0.181,-0.083 0.201,-0.083C0.224,-0.083 0.254,-0.117 0.291,-0.186C0.328,-0.255 0.357,-0.33 0.378,-0.411Z" style="fill:rgb(77,136,235);fill-rule:nonzero;"/>
                </g>
                <g transform="matrix(45,0,0,45,245.221,1205)">
                    <path d="M0.443,-0.159C0.42,-0.113 0.39,-0.074 0.355,-0.042C0.32,-0.01 0.284,0.006 0.249,0.006C0.214,0.006 0.187,-0.006 0.168,-0.031C0.149,-0.055 0.135,-0.086 0.127,-0.125C0.119,-0.163 0.112,-0.202 0.106,-0.243C0.099,-0.284 0.088,-0.323 0.073,-0.362C0.058,-0.401 0.037,-0.43 0.01,-0.449C0.019,-0.465 0.032,-0.478 0.049,-0.49C0.066,-0.5 0.085,-0.506 0.105,-0.506C0.136,-0.506 0.162,-0.486 0.181,-0.446C0.2,-0.405 0.213,-0.361 0.219,-0.312C0.224,-0.263 0.231,-0.216 0.237,-0.171C0.245,-0.125 0.253,-0.099 0.262,-0.092C0.285,-0.093 0.305,-0.108 0.322,-0.136C0.339,-0.163 0.351,-0.197 0.359,-0.236C0.374,-0.308 0.381,-0.364 0.381,-0.405C0.381,-0.446 0.379,-0.477 0.375,-0.499C0.398,-0.504 0.418,-0.506 0.435,-0.506C0.492,-0.506 0.521,-0.479 0.521,-0.424C0.521,-0.389 0.514,-0.348 0.5,-0.3C0.485,-0.251 0.466,-0.204 0.443,-0.159Z" style="fill:rgb(77,136,235);fill-rule:nonzero;"/>
                </g>
                <g transform="matrix(45,0,0,45,269.116,1205)">
                    <path d="M0.142,-0.227C0.142,-0.179 0.15,-0.141 0.165,-0.114C0.18,-0.086 0.206,-0.072 0.242,-0.072C0.278,-0.072 0.306,-0.084 0.327,-0.109C0.347,-0.133 0.357,-0.162 0.357,-0.197C0.38,-0.197 0.399,-0.191 0.416,-0.18C0.433,-0.169 0.441,-0.153 0.441,-0.133C0.441,-0.092 0.419,-0.057 0.375,-0.029C0.331,-0.002 0.285,0.012 0.236,0.012C0.16,0.012 0.105,-0.009 0.071,-0.05C0.037,-0.091 0.02,-0.151 0.02,-0.232C0.02,-0.313 0.043,-0.381 0.089,-0.436C0.134,-0.491 0.195,-0.518 0.271,-0.518C0.323,-0.518 0.365,-0.506 0.397,-0.483C0.428,-0.459 0.444,-0.422 0.444,-0.373C0.444,-0.323 0.422,-0.285 0.377,-0.261C0.332,-0.235 0.277,-0.223 0.212,-0.223C0.189,-0.223 0.166,-0.224 0.142,-0.227ZM0.143,-0.306C0.163,-0.302 0.184,-0.3 0.206,-0.3C0.254,-0.3 0.294,-0.309 0.327,-0.327C0.331,-0.343 0.333,-0.356 0.333,-0.365C0.333,-0.388 0.325,-0.406 0.308,-0.418C0.291,-0.43 0.269,-0.436 0.239,-0.436C0.211,-0.436 0.184,-0.427 0.161,-0.408C0.149,-0.373 0.143,-0.339 0.143,-0.306Z" style="fill:rgb(77,136,235);fill-rule:nonzero;"/>
                </g>
                <g transform="matrix(45,0,0,45,290.986,1205)">
                    <path d="M0.063,-0.738C0.084,-0.746 0.106,-0.75 0.129,-0.75C0.152,-0.75 0.171,-0.743 0.186,-0.728C0.201,-0.713 0.208,-0.692 0.208,-0.667C0.208,-0.641 0.204,-0.59 0.198,-0.513C0.191,-0.436 0.187,-0.375 0.187,-0.331C0.187,-0.222 0.195,-0.116 0.21,-0.012C0.189,-0.004 0.166,0 0.142,0C0.091,0 0.065,-0.025 0.065,-0.075C0.065,-0.099 0.069,-0.146 0.076,-0.217C0.083,-0.287 0.087,-0.343 0.087,-0.386C0.087,-0.528 0.079,-0.645 0.063,-0.738Z" style="fill:rgb(77,136,235);fill-rule:nonzero;"/>
                </g>
                <g transform="matrix(45,0,0,45,303.793,1205)">
                    <path d="M0.429,-0.431C0.448,-0.431 0.462,-0.431 0.471,-0.43C0.47,-0.518 0.463,-0.611 0.45,-0.71C0.499,-0.706 0.565,-0.704 0.649,-0.704C0.732,-0.704 0.812,-0.71 0.888,-0.722C0.896,-0.707 0.9,-0.69 0.9,-0.671C0.9,-0.651 0.893,-0.633 0.878,-0.617C0.863,-0.6 0.84,-0.592 0.808,-0.592C0.794,-0.592 0.761,-0.595 0.71,-0.602C0.659,-0.609 0.621,-0.612 0.597,-0.612C0.59,-0.504 0.587,-0.441 0.586,-0.422C0.63,-0.418 0.676,-0.416 0.725,-0.416C0.773,-0.416 0.814,-0.423 0.848,-0.437C0.856,-0.422 0.86,-0.404 0.86,-0.383C0.86,-0.362 0.852,-0.343 0.836,-0.328C0.82,-0.313 0.798,-0.305 0.771,-0.305C0.743,-0.305 0.681,-0.314 0.586,-0.332C0.586,-0.242 0.589,-0.164 0.594,-0.098C0.621,-0.095 0.649,-0.094 0.677,-0.094C0.76,-0.094 0.834,-0.109 0.901,-0.138C0.909,-0.12 0.913,-0.1 0.913,-0.078C0.913,-0.055 0.905,-0.036 0.889,-0.019C0.874,-0.002 0.855,0.006 0.832,0.006C0.761,0.006 0.651,0.002 0.5,-0.006C0.488,-0.007 0.477,-0.011 0.468,-0.018C0.459,-0.025 0.454,-0.033 0.454,-0.044C0.454,-0.079 0.456,-0.131 0.461,-0.202C0.466,-0.272 0.468,-0.32 0.469,-0.345L0.452,-0.345C0.371,-0.345 0.301,-0.328 0.241,-0.293C0.18,-0.258 0.139,-0.202 0.118,-0.126C0.079,-0.163 0.06,-0.204 0.06,-0.249C0.06,-0.37 0.183,-0.431 0.429,-0.431Z" style="fill:rgb(77,136,235);fill-rule:nonzero;"/>
                </g>
                <g transform="matrix(45,0,0,45,346.228,1205)">
                    <path d="M0.51,-0.068C0.51,-0.045 0.504,-0.027 0.492,-0.014C0.479,-0.001 0.463,0.006 0.442,0.006C0.421,0.006 0.403,0.002 0.387,-0.007C0.37,-0.015 0.354,-0.029 0.338,-0.048C0.322,-0.067 0.309,-0.084 0.3,-0.097C0.287,-0.118 0.262,-0.159 0.227,-0.22C0.16,-0.157 0.127,-0.083 0.127,0C0.094,0 0.066,-0.006 0.043,-0.019C0.021,-0.032 0.01,-0.05 0.01,-0.075C0.01,-0.1 0.018,-0.123 0.035,-0.143C0.051,-0.165 0.077,-0.19 0.114,-0.221C0.15,-0.252 0.174,-0.273 0.186,-0.285C0.161,-0.324 0.136,-0.354 0.111,-0.377C0.086,-0.399 0.054,-0.417 0.015,-0.432C0.015,-0.454 0.022,-0.472 0.037,-0.486C0.051,-0.499 0.068,-0.506 0.087,-0.506C0.106,-0.506 0.124,-0.502 0.14,-0.496C0.155,-0.489 0.169,-0.481 0.181,-0.471C0.192,-0.463 0.205,-0.449 0.219,-0.432C0.236,-0.413 0.257,-0.383 0.284,-0.342C0.3,-0.361 0.312,-0.376 0.32,-0.387C0.34,-0.417 0.35,-0.457 0.35,-0.506C0.375,-0.506 0.395,-0.505 0.411,-0.503C0.428,-0.501 0.443,-0.495 0.458,-0.485C0.472,-0.474 0.479,-0.46 0.479,-0.441C0.479,-0.422 0.47,-0.403 0.451,-0.382C0.432,-0.361 0.409,-0.34 0.38,-0.319C0.351,-0.297 0.333,-0.282 0.325,-0.273C0.354,-0.215 0.382,-0.169 0.411,-0.136C0.44,-0.102 0.473,-0.079 0.51,-0.068Z" style="fill:rgb(77,136,235);fill-rule:nonzero;"/>
                </g>
                <g transform="matrix(45,0,0,45,369.403,1205)">
                    <path d="M0.181,-0.098C0.208,-0.088 0.24,-0.083 0.276,-0.083C0.312,-0.083 0.344,-0.09 0.371,-0.104C0.404,-0.16 0.42,-0.227 0.42,-0.306C0.42,-0.384 0.406,-0.423 0.379,-0.423C0.345,-0.423 0.307,-0.389 0.265,-0.32C0.222,-0.251 0.194,-0.177 0.181,-0.098ZM0.181,-0.303C0.252,-0.442 0.33,-0.512 0.416,-0.512C0.461,-0.512 0.494,-0.494 0.514,-0.457C0.533,-0.42 0.543,-0.373 0.543,-0.316C0.543,-0.235 0.519,-0.161 0.471,-0.094C0.423,-0.027 0.363,0.006 0.29,0.006C0.249,0.006 0.211,-0.001 0.177,-0.014C0.178,0.077 0.184,0.161 0.194,0.237C0.173,0.245 0.151,0.249 0.128,0.249C0.105,0.249 0.087,0.241 0.072,0.226C0.057,0.211 0.05,0.189 0.05,0.158C0.05,0.127 0.054,0.075 0.062,0.001C0.07,-0.073 0.074,-0.131 0.074,-0.173C0.074,-0.312 0.067,-0.419 0.052,-0.494C0.073,-0.502 0.096,-0.506 0.119,-0.506C0.143,-0.506 0.162,-0.499 0.174,-0.486C0.188,-0.472 0.194,-0.451 0.194,-0.422C0.194,-0.393 0.19,-0.353 0.181,-0.303Z" style="fill:rgb(77,136,235);fill-rule:nonzero;"/>
                </g>
                <g transform="matrix(45,0,0,45,395.188,1205)">
                    <path d="M0.142,-0.227C0.142,-0.179 0.15,-0.141 0.165,-0.114C0.18,-0.086 0.206,-0.072 0.242,-0.072C0.278,-0.072 0.306,-0.084 0.327,-0.109C0.347,-0.133 0.357,-0.162 0.357,-0.197C0.38,-0.197 0.399,-0.191 0.416,-0.18C0.433,-0.169 0.441,-0.153 0.441,-0.133C0.441,-0.092 0.419,-0.057 0.375,-0.029C0.331,-0.002 0.285,0.012 0.236,0.012C0.16,0.012 0.105,-0.009 0.071,-0.05C0.037,-0.091 0.02,-0.151 0.02,-0.232C0.02,-0.313 0.043,-0.381 0.089,-0.436C0.134,-0.491 0.195,-0.518 0.271,-0.518C0.323,-0.518 0.365,-0.506 0.397,-0.483C0.428,-0.459 0.444,-0.422 0.444,-0.373C0.444,-0.323 0.422,-0.285 0.377,-0.261C0.332,-0.235 0.277,-0.223 0.212,-0.223C0.189,-0.223 0.166,-0.224 0.142,-0.227ZM0.143,-0.306C0.163,-0.302 0.184,-0.3 0.206,-0.3C0.254,-0.3 0.294,-0.309 0.327,-0.327C0.331,-0.343 0.333,-0.356 0.333,-0.365C0.333,-0.388 0.325,-0.406 0.308,-0.418C0.291,-0.43 0.269,-0.436 0.239,-0.436C0.211,-0.436 0.184,-0.427 0.161,-0.408C0.149,-0.373 0.143,-0.339 0.143,-0.306Z" style="fill:rgb(77,136,235);fill-rule:nonzero;"/>
                </g>
                <g transform="matrix(45,0,0,45,417.058,1205)">
                    <path d="M0.199,-0.012C0.178,-0.004 0.156,0 0.133,0C0.11,0 0.091,-0.006 0.077,-0.017C0.062,-0.028 0.055,-0.043 0.055,-0.063C0.055,-0.082 0.058,-0.118 0.064,-0.17C0.07,-0.222 0.073,-0.273 0.073,-0.322C0.073,-0.371 0.065,-0.428 0.05,-0.494C0.071,-0.502 0.092,-0.506 0.113,-0.506C0.134,-0.506 0.152,-0.499 0.167,-0.485C0.182,-0.471 0.189,-0.452 0.189,-0.429C0.189,-0.417 0.187,-0.399 0.183,-0.376C0.179,-0.352 0.177,-0.334 0.176,-0.322C0.202,-0.381 0.233,-0.428 0.269,-0.462C0.304,-0.495 0.34,-0.512 0.375,-0.512C0.4,-0.512 0.419,-0.503 0.434,-0.486C0.449,-0.469 0.456,-0.447 0.456,-0.421C0.456,-0.394 0.449,-0.373 0.436,-0.357C0.423,-0.34 0.406,-0.332 0.387,-0.332C0.367,-0.332 0.351,-0.334 0.339,-0.338C0.341,-0.346 0.342,-0.353 0.342,-0.36C0.342,-0.387 0.332,-0.401 0.313,-0.401C0.284,-0.401 0.256,-0.372 0.231,-0.313C0.205,-0.254 0.188,-0.198 0.179,-0.147C0.182,-0.097 0.189,-0.052 0.199,-0.012Z" style="fill:rgb(77,136,235);fill-rule:nonzero;"/>
                </g>
                <g transform="matrix(45,0,0,45,437.623,1205)">
                    <path d="M0.091,-0.653C0.112,-0.664 0.134,-0.669 0.156,-0.669C0.178,-0.669 0.196,-0.662 0.21,-0.648C0.223,-0.634 0.23,-0.613 0.23,-0.586C0.23,-0.559 0.228,-0.528 0.225,-0.493C0.275,-0.493 0.323,-0.5 0.368,-0.514C0.376,-0.501 0.38,-0.485 0.38,-0.468C0.38,-0.45 0.372,-0.436 0.357,-0.425C0.341,-0.413 0.325,-0.408 0.309,-0.408C0.293,-0.408 0.275,-0.41 0.255,-0.414C0.235,-0.418 0.222,-0.42 0.216,-0.421C0.215,-0.415 0.214,-0.403 0.211,-0.385C0.207,-0.367 0.205,-0.351 0.203,-0.338C0.198,-0.301 0.195,-0.262 0.195,-0.22C0.195,-0.129 0.225,-0.083 0.284,-0.083C0.306,-0.083 0.331,-0.091 0.36,-0.106C0.369,-0.093 0.373,-0.077 0.373,-0.057C0.373,-0.037 0.362,-0.021 0.341,-0.011C0.319,0 0.293,0.006 0.263,0.006C0.146,0.006 0.087,-0.061 0.087,-0.194C0.087,-0.213 0.09,-0.248 0.096,-0.299C0.101,-0.35 0.104,-0.391 0.104,-0.422C0.072,-0.42 0.046,-0.414 0.027,-0.405C0.019,-0.417 0.015,-0.431 0.015,-0.447C0.015,-0.462 0.021,-0.475 0.032,-0.486C0.043,-0.496 0.057,-0.501 0.074,-0.501C0.091,-0.501 0.102,-0.501 0.107,-0.5C0.108,-0.505 0.108,-0.512 0.108,-0.521C0.108,-0.571 0.102,-0.615 0.091,-0.653Z" style="fill:rgb(77,136,235);fill-rule:nonzero;"/>
                </g>
                <g transform="matrix(45,0,0,45,455.398,1205)">
                    <path d="M0.141,-0.182C0.139,-0.173 0.138,-0.165 0.138,-0.159C0.138,-0.132 0.146,-0.111 0.163,-0.096C0.179,-0.081 0.201,-0.074 0.229,-0.074C0.256,-0.074 0.279,-0.079 0.298,-0.09C0.316,-0.1 0.325,-0.115 0.325,-0.136C0.325,-0.157 0.315,-0.173 0.296,-0.186C0.276,-0.198 0.252,-0.208 0.225,-0.215C0.197,-0.222 0.169,-0.231 0.141,-0.239C0.113,-0.249 0.089,-0.263 0.07,-0.282C0.05,-0.301 0.04,-0.326 0.04,-0.355C0.04,-0.401 0.064,-0.44 0.113,-0.471C0.162,-0.502 0.213,-0.518 0.266,-0.518C0.325,-0.518 0.369,-0.506 0.4,-0.482C0.418,-0.468 0.427,-0.45 0.427,-0.427C0.427,-0.404 0.418,-0.385 0.401,-0.371C0.383,-0.356 0.361,-0.349 0.336,-0.349C0.331,-0.349 0.324,-0.35 0.316,-0.351C0.318,-0.36 0.319,-0.367 0.319,-0.374C0.319,-0.393 0.312,-0.408 0.297,-0.418C0.282,-0.428 0.263,-0.433 0.237,-0.433C0.213,-0.433 0.19,-0.428 0.169,-0.418C0.161,-0.407 0.157,-0.394 0.157,-0.377C0.157,-0.36 0.167,-0.347 0.186,-0.337C0.205,-0.326 0.229,-0.317 0.257,-0.31C0.284,-0.302 0.312,-0.293 0.34,-0.283C0.368,-0.274 0.392,-0.259 0.411,-0.238C0.43,-0.218 0.44,-0.193 0.44,-0.162C0.44,-0.112 0.415,-0.07 0.366,-0.038C0.316,-0.005 0.265,0.012 0.212,0.012C0.159,0.012 0.116,0.002 0.082,-0.017C0.047,-0.035 0.03,-0.064 0.03,-0.103C0.03,-0.127 0.039,-0.147 0.057,-0.162C0.074,-0.177 0.096,-0.184 0.121,-0.184C0.126,-0.184 0.133,-0.183 0.141,-0.182Z" style="fill:rgb(77,136,235);fill-rule:nonzero;"/>
                </g>
            </g>
        </g>
    </g>
</svg>
